<?xml version="1.0" encoding="UTF-8" standalone="no"?>
<!-- Uploaded to: SVG Repo, www.svgrepo.com, Generator: SVG Repo Mixer Tools -->

<svg
   fill="#000000"
   height="800px"
   width="800px"
   version="1.1"
   id="Layer_1"
   viewBox="0 0 512 512"
   xml:space="preserve"
   sodipodi:docname="lightbulb-green-svgrepo-com.svg"
   inkscape:version="1.3.1 (9b9bdc1480, 2023-11-25, custom)"
   xmlns:inkscape="http://www.inkscape.org/namespaces/inkscape"
   xmlns:sodipodi="http://sodipodi.sourceforge.net/DTD/sodipodi-0.dtd"
   xmlns="http://www.w3.org/2000/svg"
   xmlns:svg="http://www.w3.org/2000/svg"><defs
   id="defs2" /><sodipodi:namedview
   id="namedview2"
   pagecolor="#ffffff"
   bordercolor="#000000"
   borderopacity="0.25"
   inkscape:showpageshadow="2"
   inkscape:pageopacity="0.0"
   inkscape:pagecheckerboard="0"
   inkscape:deskcolor="#d1d1d1"
   inkscape:zoom="2.0788939"
   inkscape:cx="409.11178"
   inkscape:cy="341.52777"
   inkscape:window-width="2488"
   inkscape:window-height="1376"
   inkscape:window-x="1992"
   inkscape:window-y="27"
   inkscape:window-maximized="1"
   inkscape:current-layer="Layer_1" />
<g
   id="g2">
	<g
   id="g1">
		<path
   d="M374.835,282.564C397.133,252.365,422.4,218.129,422.4,166.4C422.4,74.65,347.75,0,256,0S89.6,74.65,89.6,166.4    c0,51.729,25.267,85.965,47.565,116.164C159.718,313.122,179.2,339.516,179.2,384v9.984c-7.799,7.031-12.8,17.109-12.8,28.416    c0,9.873,3.849,18.79,9.984,25.6c-6.144,6.81-9.984,15.727-9.984,25.6c0,21.171,17.229,38.4,38.4,38.4h102.4    c21.171,0,38.4-17.229,38.4-38.4c0-9.873-3.849-18.79-9.984-25.6c6.144-6.81,9.984-15.727,9.984-25.6    c0-11.307-5.001-21.376-12.8-28.416V384C332.8,339.516,352.282,313.122,374.835,282.564z M307.2,486.4H204.8    c-7.066,0-12.8-5.734-12.8-12.8c0-7.074,5.734-12.8,12.8-12.8h102.4c7.066,0,12.8,5.726,12.8,12.8    C320,480.666,314.266,486.4,307.2,486.4z M307.2,435.2H204.8c-7.066,0-12.8-5.734-12.8-12.8c0-7.074,5.734-12.8,12.8-12.8h102.4    c7.066,0,12.8,5.726,12.8,12.8C320,429.466,314.266,435.2,307.2,435.2z M281.472,164.599c-1.024-6.997-7.697-11.75-14.473-10.871    c-6.997,0.998-11.878,7.475-10.871,14.472c3.874,27.17-1.254,53.385-7.578,80.649c-31.787-3.738-56.542-30.455-56.542-63.249    c0-35.345,64-51.2,64-102.4c51.2,25.6,64,67.055,64,102.4c0,28.553-18.816,52.446-44.629,60.689    C281.165,220.117,285.559,193.126,281.472,164.599z M307.2,384h-39.39c-13.824-38.536-7.236-73.813,1.22-110.114    c43.204-6.374,76.578-43.341,76.578-88.286c0-56.405-27.025-99.738-78.148-125.295c-3.627-1.809-7.543-2.705-11.46-2.705    c-4.685,0-9.353,1.28-13.457,3.823C234.991,66.091,230.4,74.325,230.4,83.2c0,15.548-10.607,26.342-28.075,42.283    c-16.836,15.36-35.925,32.777-35.925,60.117c0,44.877,33.263,81.801,76.365,88.26c-7.629,33.818-13.457,70.4-1.732,110.14H204.8    c0-102.4-89.6-128-89.6-217.6c0-77.764,63.036-140.8,140.8-140.8s140.8,63.036,140.8,140.8C396.8,256,307.2,281.6,307.2,384z"
   id="path1" />
	</g>
</g>
<path
   style="fill:#aad400;stroke-width:0.680272"
   d="m 379.82718,387.03044 c -22.79943,-4.79013 -44.44847,-18.26505 -58.30443,-36.29017 -5.46009,-7.103 -7.14375,-9.76662 -10.83007,-17.13358 -6.47267,-12.93539 -9.26765,-24.06998 -9.80455,-39.05917 -0.3385,-9.45047 -0.22327,-11.11867 1.10161,-15.94789 2.80449,-10.22249 9.52905,-20.9851 20.17019,-32.28226 2.9651,-3.1479 12.73803,-12.51451 21.71762,-20.8147 23.44815,-21.67402 31.79799,-30.75426 40.654,-44.21015 C 394.11272,166.73481 400,149.22066 400,135.27525 v -4.68259 l 4.13859,2.08915 c 17.25382,8.70971 36.66087,22.96295 49.62799,36.44863 29.8782,31.07304 45.46869,71.39381 45.60454,117.94439 0.0572,19.61112 -2.58872,31.66781 -10.34149,47.12267 -6.87606,13.70715 -19.88404,28.63523 -32.26956,37.03285 -8.75166,5.93379 -24.09036,13.36679 -25.23062,12.22653 -0.22716,-0.22715 0.8527,-6.77644 2.39967,-14.55399 7.1723,-36.05928 9.70792,-63.31778 8.26494,-88.85004 -1.03807,-18.36779 -2.13293,-25.46646 -4.60837,-29.87888 -6.64349,-11.84194 -23.10283,-13.87394 -32.3451,-3.99321 -1.63459,1.74751 -3.5261,4.62823 -4.20336,6.40161 -1.33114,3.48554 -1.28558,6.72415 0.3704,26.32919 0.45538,5.39117 0.60406,14.05454 0.36002,20.97863 -0.86261,24.47535 -3.62681,42.77727 -12.83387,84.97376 -0.89535,4.10343 -0.42265,3.99098 -9.1066,2.16649 z"
   id="path2"
   transform="scale(0.64)" /><path
   style="fill:#aad400;stroke-width:0.085034"
   d="m 430.39711,384.51008 c 0.13059,-0.55278 0.95795,-4.37592 1.53359,-7.08661 6.39359,-30.1074 9.39945,-52.15311 10.26078,-75.2551 0.13513,-3.62441 0.13481,-14.696 -5.3e-4,-18.15476 -0.27098,-6.92515 -0.71794,-13.19939 -1.33807,-18.78303 -0.11629,-1.04707 -0.18914,-1.92607 -0.16189,-1.95332 0.10689,-0.10689 0.18333,0.19965 0.27826,1.11585 0.53992,5.2108 1.014,11.95132 1.38295,19.66301 0.14555,3.04239 0.19896,13.29445 0.0884,16.96429 -0.61308,20.34472 -3.10587,40.09211 -8.59808,68.11224 -1.48005,7.5509 -2.44327,13.30183 -2.3652,14.12144 l 0.0278,0.29183 0.68027,-0.01 c 0.5769,-0.009 0.87682,-0.076 1.97359,-0.44428 5.89413,-1.97909 17.87396,-8.37834 24.21689,-12.9359 8.9708,-6.44577 18.39711,-16.40908 25.28532,-26.72581 2.22481,-3.33217 3.8582,-6.14896 5.65755,-9.75642 5.97225,-11.97365 8.75052,-21.86344 9.69854,-34.52381 0.23892,-3.19059 0.30769,-5.02198 0.35925,-9.56633 0.0943,-8.31415 -0.31348,-16.51358 -1.20721,-24.27329 -0.25157,-2.18428 -0.24838,-2.04473 -0.0468,-2.04473 0.19885,0 0.20465,0.0264 0.42957,1.95578 0.92941,7.97268 1.37877,15.73065 1.38649,23.93707 0.004,4.22072 -0.058,5.97417 -0.32626,9.22619 -1.0282,12.46626 -4.4969,24.75701 -10.16328,36.01191 -4.00579,7.95653 -8.9469,15.16082 -15.07602,21.98129 -1.32296,1.47219 -5.19519,5.36638 -6.68787,6.72578 -5.84594,5.32402 -12.15182,9.86099 -19.13071,13.7642 -3.3554,1.87665 -8.98506,4.51305 -12.62755,5.91357 -1.60513,0.61717 -4.92587,1.7881 -5.29688,1.86775 -0.26154,0.0562 -0.27679,0.0471 -0.23288,-0.13877 z"
   id="path3"
   transform="scale(0.64)" /><path
   style="fill:#aad400;stroke-width:0.085034"
   d="m 431.57119,383.35713 c -0.16662,-0.4342 0.80438,-6.27626 2.39957,-14.43706 5.22398,-26.72528 7.56814,-44.68894 8.46662,-64.88095 0.14532,-3.26594 0.19713,-13.25771 0.0877,-16.92177 -0.15949,-5.34216 -0.51924,-11.70681 -0.9901,-17.51701 -0.16797,-2.07254 -0.53728,-5.8952 -0.59357,-6.14371 l -0.0433,-0.19132 h 28.47438 28.47439 l 0.0959,0.78656 c 0.53369,4.37521 0.95497,9.60752 1.22381,15.19983 0.14495,3.01526 0.14484,13.76492 -1.8e-4,16.32653 -0.22044,3.89415 -0.42451,6.195 -0.8296,9.35374 -1.27289,9.92557 -4.17526,18.97845 -9.39179,29.29422 -7.31261,14.46078 -20.79973,29.63716 -33.73217,37.95709 -8.17238,5.2576 -20.58294,11.31854 -23.179,11.31991 -0.30622,1.6e-4 -0.42044,-0.0359 -0.46271,-0.14606 z"
   id="path4"
   transform="scale(0.64)" /><path
   style="fill:#aad400;stroke-width:0.085034"
   d="m 431.57674,383.37159 c -0.17642,-0.45972 0.73589,-5.96594 2.39441,-14.45152 4.23108,-21.64766 6.54645,-37.52471 7.77518,-53.31633 0.66463,-8.54169 0.90261,-15.38234 0.82834,-23.80952 -0.059,-6.69553 -0.17481,-9.58638 -0.69997,-17.47449 -0.28706,-4.31178 -0.79655,-10.23363 -0.93461,-10.8631 l -0.042,-0.19132 h 28.47497 28.47498 l 0.1832,1.55187 c 0.84232,7.13532 1.2865,15.00744 1.28704,22.81037 10e-4,18.27849 -2.34187,29.68175 -9.00723,43.83504 -4.83556,10.26785 -11.74328,19.90528 -20.66488,28.83098 -4.57405,4.57615 -8.51769,7.90033 -12.93318,10.90166 -5.66097,3.84792 -15.06453,8.87692 -20.99873,11.23007 -1.72946,0.68581 -2.75967,0.99587 -3.50599,1.05521 -0.49929,0.0397 -0.57987,0.0258 -0.63156,-0.10892 z"
   id="path5"
   transform="scale(0.64)" /><path
   style="fill:#aad400;stroke-width:0.085034"
   d="m 431.57674,383.37159 c -0.16845,-0.43895 0.72864,-5.922 2.2253,-13.60118 1.01561,-5.21098 1.71184,-8.88572 2.29509,-12.1135 3.92666,-21.73072 5.9506,-39.68047 6.42925,-57.01915 0.10703,-3.87714 0.056,-13.10396 -0.0906,-16.36905 -0.34584,-7.70514 -1.17087,-19.12025 -1.50113,-20.76956 l -0.0468,-0.23384 H 469.381 c 15.88995,0 28.49315,0.0324 28.49315,0.0733 0,0.0403 0.0949,0.91084 0.21091,1.93452 0.82738,7.30169 1.23271,14.64895 1.23325,22.35445 10e-4,18.24385 -2.34576,29.70722 -8.9492,43.70971 -2.12931,4.51518 -3.91627,7.68963 -6.65228,11.8175 -7.49016,11.30051 -17.77331,21.90561 -27.52055,28.3822 -5.83612,3.87782 -14.45637,8.47159 -20.26941,10.80164 -1.90495,0.76356 -2.93382,1.07951 -3.71857,1.14191 -0.49929,0.0397 -0.57987,0.0258 -0.63156,-0.10892 z"
   id="path6"
   transform="scale(0.64)" /><path
   style="fill:#aad400;stroke-width:0.085034"
   d="m 431.58052,383.38145 c -0.17963,-0.4681 0.67747,-5.67213 2.38178,-14.46138 1.48073,-7.63629 2.13623,-11.17882 3.02104,-16.32653 4.67746,-27.21323 6.37626,-49.87418 5.31962,-70.96089 -0.33292,-6.6439 -1.10029,-16.81911 -1.36756,-18.1335 l -0.0476,-0.23384 h 28.4932 c 23.09236,0 28.49315,0.0206 28.49315,0.10883 0,0.0599 0.0558,0.56687 0.12396,1.1267 0.49844,4.09267 0.8934,9.04546 1.16954,14.66583 0.14348,2.92047 0.14313,13.94854 -5.3e-4,16.4966 -0.77843,13.80678 -2.99236,23.03623 -8.31203,34.65136 -2.16067,4.71767 -4.25798,8.49023 -7.13832,12.84013 -4.13173,6.23977 -8.50492,11.56658 -14.07144,17.13987 -5.95682,5.96406 -10.75392,9.75328 -17.34941,13.70424 -6.51197,3.90094 -14.66624,7.92096 -18.57993,9.15986 -1.0625,0.33633 -2.05226,0.43955 -2.13547,0.22272 z"
   id="path7"
   transform="scale(0.64)" /><path
   style="fill:#aad400;stroke-width:0.085034"
   d="m 339.96599,279.94906 v -50.74822 l 3.25013,-3.01453 c 16.65932,-15.45174 24.43989,-23.2115 30.90333,-30.82066 5.28031,-6.21632 10.77547,-14.06498 14.32198,-20.45586 0.90816,-1.63654 2.50624,-4.74517 3.13382,-6.09601 l 0.36543,-0.78657 h 30.33078 30.33079 l 1.01881,1.04167 c 6.49819,6.64396 13.45188,15.33161 18.71698,23.38421 16.00266,24.47493 24.87136,52.36446 26.68205,83.90745 0.41468,7.22385 0.37726,17.24033 -0.0858,22.95919 -0.91226,11.26711 -3.04603,19.68459 -7.57762,29.89288 l -0.65906,1.48467 h -25.24574 -25.24575 l 0.0506,-0.31888 c 0.22196,-1.39876 1.05358,-9.53945 1.36165,-13.32908 0.71861,-8.83986 0.93522,-14.19243 0.93426,-23.08673 -8e-4,-7.60147 -0.0737,-9.92283 -0.55012,-17.51701 -0.93031,-14.82969 -1.93564,-21.30311 -3.95517,-25.46769 -0.46538,-0.95967 -1.48885,-2.58392 -2.19407,-3.48198 -3.19469,-4.06828 -8.01638,-6.77023 -13.36515,-7.48951 -1.22294,-0.16445 -3.72842,-0.1874 -4.92862,-0.0451 -5.56025,0.65908 -10.40681,3.42751 -13.70386,7.82785 -2.11211,2.81889 -3.10097,4.84844 -3.54212,7.26992 -0.1713,0.94025 -0.18578,1.28621 -0.18338,4.37974 0.001,1.84736 0.0509,4.06675 0.10997,4.93197 0.24516,3.59238 0.46501,6.50202 0.82241,10.88435 0.20787,2.5489 0.41622,5.2466 0.463,5.9949 0.69196,11.06807 0.19658,26.41329 -1.31626,40.77381 -0.22024,2.09054 -0.94245,8.03592 -1.0252,8.43963 l -0.0479,0.23384 H 369.55108 339.966 Z"
   id="path8"
   transform="scale(0.64)" /><path
   style="fill:#aad400;stroke-width:0.085034"
   d="m 497.93285,263.20153 c -0.02,-0.0351 -0.0627,-0.3125 -0.0948,-0.6165 -0.0321,-0.30399 -0.18918,-1.47558 -0.34899,-2.60352 -2.1459,-15.14652 -6.13205,-29.54396 -11.9453,-43.14477 -2.31465,-5.41541 -5.64377,-12.0385 -8.61267,-17.13436 -6.40844,-10.99956 -13.79394,-20.79586 -22.87044,-30.33588 -1.19728,-1.25843 -1.25889,-1.33929 -1.0205,-1.33929 0.21759,0 0.4464,0.20272 1.60767,1.42432 14.04703,14.77687 24.49602,30.8257 32.13031,49.34964 5.41673,13.14321 9.3204,27.96237 11.35436,43.10359 0.20076,1.49452 0.20059,1.36055 0.002,1.36055 -0.0908,0 -0.18142,-0.0287 -0.20142,-0.0638 z"
   id="path9"
   transform="scale(0.64)" /><path
   style="fill:#aad400;stroke-width:0.085034"
   d="m 339.96599,249.33418 v -20.13862 l 3.8879,-3.60713 c 15.87815,-14.73152 23.28287,-22.1073 29.74378,-29.62755 5.34339,-6.21949 10.75322,-13.84087 14.45602,-20.36564 6.25813,-11.02758 10.4871,-23.48848 11.64452,-34.31123 0.24554,-2.29601 0.3011,-3.60082 0.30144,-7.07908 2e-4,-1.92921 0.0198,-3.50765 0.0436,-3.50765 0.0759,0 4.10206,2.028 5.9517,2.9979 12.79042,6.70692 26.77662,16.38386 38.30469,26.5027 4.67976,4.10769 9.6956,9.07712 13.65292,13.52661 18.56303,20.87168 30.91775,45.22003 37.06377,73.04422 1.15377,5.22332 1.84665,9.24075 2.81578,16.32653 0.1249,0.9132 0.49718,4.2969 0.6198,5.6335 l 0.0683,0.74405 h -28.51176 c -24.36052,0 -28.51177,-0.0173 -28.51177,-0.11886 0,-0.80727 -0.68962,-7.21449 -0.98481,-9.14985 -0.84032,-5.50927 -1.83224,-8.53853 -3.73113,-11.39456 -3.10292,-4.66697 -7.87252,-7.70854 -13.69392,-8.7326 -1.23986,-0.21811 -5.24896,-0.21695 -6.46259,0.002 -5.17566,0.93314 -9.46107,3.46013 -12.50971,7.37665 -2.02502,2.60151 -3.22939,4.91653 -3.69052,7.09389 -0.45943,2.1693 -0.45798,5.96007 0.005,12.45748 0.0916,1.28614 0.16654,2.36714 0.16654,2.40221 10e-6,0.0351 -13.64157,0.0638 -30.31462,0.0638 H 339.9663 Z"
   id="path10"
   transform="scale(0.64)" /><path
   style="fill:#aad400;stroke-width:0.085034"
   d="m 451.09757,166.37392 c -10.04314,-9.89442 -23.45568,-20.14477 -36.85437,-28.16547 -3.52757,-2.11167 -6.32824,-3.6463 -11.03266,-6.04536 -2.99871,-1.52922 -3.12451,-1.60307 -3.125,-1.83448 l -5.1e-4,-0.24111 2.23215,1.14497 c 18.91589,9.70289 35.2734,21.30803 48.69771,34.5495 2.04183,2.01402 2.22975,2.22286 2.03385,2.26031 -0.18728,0.0358 -0.44552,-0.18501 -1.95117,-1.66836 z"
   id="path11"
   transform="scale(0.64)" /><path
   style="fill:#aad400;stroke-width:0.085034"
   d="m 309.44775,262.47874 c 0.055,-0.10523 0.55184,-0.86899 1.10411,-1.69724 3.21391,-4.82003 7.26648,-9.81492 11.98709,-14.77437 3.04892,-3.20318 11.73998,-11.51974 22.39919,-21.43399 20.08159,-18.67812 27.9669,-26.94898 35.34497,-37.07314 3.36171,-4.61293 6.19054,-9.01061 8.45093,-13.13775 6.39887,-11.68343 10.39844,-24.38638 11.17782,-35.50171 0.0476,-0.67814 0.0868,-2.7923 0.0873,-4.69812 4.6e-4,-1.90583 0.0229,-3.46514 0.0499,-3.46514 0.0863,0 5.72459,2.85971 7.13628,3.61949 12.67369,6.82096 26.02404,16.13078 37.11277,25.88044 3.48061,3.0603 8.73073,8.14265 11.41377,11.04906 14.98375,16.23111 25.9961,34.32688 33.3592,54.81666 3.91049,10.88195 6.83769,22.88683 8.41808,34.52381 0.12067,0.8886 0.24057,1.72087 0.26643,1.84948 l 0.047,0.23385 h -28.48265 -28.48266 l -0.10104,-0.82908 c -0.44633,-3.66225 -1.26445,-7.35804 -2.09781,-9.47668 -1.416,-3.59993 -4.09334,-6.90723 -7.32482,-9.04831 -2.76183,-1.8299 -6.03442,-3.0204 -9.20481,-3.3485 -1.06975,-0.11071 -3.42031,-0.10886 -4.51904,0.004 -3.62218,0.37057 -7.40891,1.94257 -10.34333,4.29387 -2.66886,2.1385 -5.47959,6.02542 -6.43308,8.89619 -0.61652,1.85625 -0.76875,3.35131 -0.71058,6.9789 l 0.0406,2.53006 h -45.3978 -45.39781 z"
   id="path12"
   transform="scale(0.64)" /><path
   style="fill:#aad400;stroke-width:0.085034"
   d="m 309.35374,262.62267 c 0,-0.0859 1.92126,-2.94665 2.86146,-4.26064 2.35448,-3.29053 5.24456,-6.83566 8.42307,-10.33221 3.37488,-3.71255 11.57624,-11.63587 23.79401,-22.9873 8.77818,-8.15575 12.37304,-11.59659 18.02799,-17.25562 8.00498,-8.01075 12.1538,-12.6843 16.83659,-18.966 6.23556,-8.36467 10.5687,-15.77545 14.04757,-24.02498 3.00373,-7.12279 5.15106,-14.69882 6.09781,-21.51361 0.43382,-3.12272 0.48921,-3.99447 0.53363,-8.39711 0.0232,-2.30335 0.0586,-4.18792 0.0785,-4.18792 0.0823,0 5.72095,2.86268 7.21603,3.66349 12.22259,6.54682 25.71864,15.93826 36.64966,25.50327 4.95972,4.33992 9.94887,9.26431 14.0427,13.86045 21.32958,23.94663 34.73839,53.20604 39.39749,85.96939 0.18955,1.33291 0.36531,2.54783 0.39059,2.69983 l 0.046,0.27636 h -28.47497 -28.47498 l -0.22988,-1.66349 c -0.51107,-3.69816 -1.13465,-6.41621 -1.96975,-8.58577 -2.63513,-6.84598 -9.19283,-11.72152 -16.76381,-12.46363 -1.42533,-0.13971 -4.13033,-0.0537 -5.42935,0.1726 -4.25552,0.74141 -7.99914,2.71927 -10.97316,5.79742 -2.06142,2.13362 -3.97389,5.1193 -4.71367,7.35888 -0.55137,1.66912 -0.63071,2.42941 -0.63544,6.08893 l -0.004,3.29508 -45.3869,-1e-5 c -24.9628,-10e-6 -45.38691,-0.0213 -45.38691,-0.0474 z"
   id="path13"
   transform="scale(0.64)" /><path
   style="fill:#aad400;stroke-width:0.085034"
   d="m 309.35374,262.63032 c 0,-0.0769 1.47885,-2.31276 2.36404,-3.5742 2.82089,-4.01991 6.69388,-8.70922 10.53467,-12.7551 3.26413,-3.43842 11.3887,-11.22221 22.85752,-21.89876 22.54833,-20.99067 30.33706,-29.44319 38.70567,-42.0043 2.72871,-4.09574 4.59398,-7.29285 6.64785,-11.39456 5.02399,-10.0332 8.14223,-20.08347 9.23406,-29.7619 0.21565,-1.91157 0.29992,-3.96342 0.30122,-7.33419 6.8e-4,-1.76552 0.0206,-3.21003 0.0443,-3.21003 0.0784,0 4.98872,2.47262 6.54705,3.29681 13.02825,6.89055 27.75092,17.21554 39.07313,27.40195 3.28694,2.95721 8.05496,7.66433 10.76529,10.62777 18.16623,19.86278 30.67005,43.11973 37.35124,69.47279 1.50626,5.94122 2.81637,12.64204 3.66591,18.75 0.14311,1.02891 0.28065,1.99511 0.30565,2.14711 l 0.0455,0.27636 H 469.31867 440.8405 l -0.10228,-0.78657 c -0.4748,-3.65129 -1.17639,-6.93599 -1.92978,-9.03486 -2.53066,-7.0501 -9.23183,-12.14399 -16.95468,-12.88805 -1.28889,-0.12418 -3.93383,-0.0577 -5.13456,0.12903 -1.96759,0.306 -3.79382,0.89196 -5.70727,1.83121 -2.24682,1.10289 -3.82097,2.24424 -5.52794,4.00812 -2.05106,2.11945 -3.99646,5.15529 -4.70666,7.34486 -0.56256,1.73434 -0.63507,2.42261 -0.64282,6.10119 l -0.007,3.29507 h -45.3869 c -24.9628,0 -45.38691,-0.0179 -45.38691,-0.0398 z"
   id="path14"
   transform="scale(0.64)" /><path
   style="fill:#aad400;stroke-width:0.085034"
   d="m 308.70409,262.54286 c 0.12615,-0.32874 2.62299,-3.94169 3.89622,-5.63786 3.97531,-5.29582 8.71358,-10.55297 15.47529,-17.16991 4.0125,-3.92659 5.87433,-5.65928 18.52304,-17.23828 9.64237,-8.8269 15.93667,-14.94598 21.39694,-20.80127 14.60502,-15.66164 23.66412,-30.36307 28.3444,-45.99826 1.82437,-6.09461 2.99671,-12.48582 3.4783,-18.96259 l 0.0727,-0.97789 0.0118,0.97789 c 0.012,0.99249 -0.0802,2.54795 -0.24672,4.16667 -1.2097,11.75546 -5.89957,25.05578 -13.02811,36.94728 -3.29404,5.49496 -8.18255,12.26918 -12.63237,17.5052 -6.36034,7.4841 -13.67842,14.79996 -29.73508,29.72602 -13.75602,12.78743 -20.67353,19.50256 -24.48128,23.76506 -3.85231,4.31237 -7.12044,8.51037 -9.71362,12.47736 -0.82556,1.26292 -0.8977,1.34779 -1.14568,1.34779 -0.19998,0 -0.25271,-0.0311 -0.21582,-0.12721 z"
   id="path15"
   transform="scale(0.64)" /><path
   style="fill:#aad400;stroke-width:0.085034"
   d="m 320.29867,349.04337 c -3.31475,-4.37608 -4.86158,-6.69557 -6.90419,-10.35289 -1.00961,-1.80772 -4.02272,-7.86009 -4.86833,-9.77891 -5.56259,-12.62245 -7.68371,-23.74696 -7.70954,-40.43368 -0.007,-4.71115 0.13208,-5.88315 1.13616,-9.55477 2.72947,-9.98081 8.76267,-19.95754 18.69902,-30.92142 2.24881,-2.48137 8.27643,-8.40431 15.10596,-14.84363 4.44362,-4.18974 5.28429,-4.97743 8.79853,-8.24407 8.68666,-8.07463 12.52391,-11.74582 17.94763,-17.17092 7.45128,-7.45316 11.53626,-12.02243 16.14012,-18.05353 l 0.95749,-1.25433 45.04193,0.0213 45.04192,0.0213 1.95579,2.93457 c 7.48181,11.22612 13.32776,22.93141 17.76808,35.57685 5.36302,15.27314 8.51002,31.24437 9.56902,48.56341 0.30648,5.01227 0.42797,13.19377 0.26516,17.85714 -0.55635,15.93595 -3.28341,26.85119 -10.11865,40.50059 -2.54968,5.09151 -5.94814,10.41404 -9.9974,15.65758 l -1.18725,1.53741 h -20.34761 c -11.19119,0 -20.34761,-0.015 -20.34761,-0.0334 0,-0.0184 0.22814,-1.42462 0.50696,-3.125 2.30141,-14.0344 3.79649,-27.36138 4.46314,-39.78375 0.26944,-5.02079 0.33257,-7.72071 0.33202,-14.20068 -6.5e-4,-7.70224 -0.0955,-10.5283 -0.62932,-18.75 -0.84604,-13.0305 -1.79607,-19.30005 -3.56272,-23.51163 -1.06103,-2.52943 -3.2491,-5.38349 -5.57437,-7.27105 -2.75698,-2.238 -6.22548,-3.76941 -9.82143,-4.33633 -1.22261,-0.19275 -3.53116,-0.25622 -4.95641,-0.13627 -5.33969,0.4494 -10.41353,3.16366 -13.732,7.34598 -2.18184,2.7498 -3.41312,5.12188 -3.88699,7.48835 -0.20925,1.04496 -0.31943,3.60967 -0.25991,6.0502 0.0787,3.22674 0.28979,6.42844 0.98116,14.88095 0.61358,7.50152 0.77693,11.79241 0.71379,18.75 -0.12775,14.07633 -1.36098,28.44041 -3.7379,43.53741 -0.55574,3.52978 -1.9046,11.36979 -2.21278,12.8614 l -0.0483,0.23384 h -36.97959 -36.9796 z"
   id="path16"
   transform="scale(0.64)" /><path
   style="fill:#aad400;stroke-width:0.085034"
   d="m 400.38358,255.30574 c 0.14862,-1.63321 1.05705,-3.8165 2.47406,-5.94601 0.58396,-0.87759 0.72688,-0.89695 0.1671,-0.0226 -0.969,1.51347 -1.82834,3.47203 -2.39466,5.45779 -0.27018,0.94735 -0.28995,0.98832 -0.2465,0.51085 z"
   id="path17"
   transform="scale(0.64)" /><path
   style="fill:#aad400;stroke-width:0.085034"
   d="m 404.5068,247.13849 c 0,-0.0468 0.0957,-0.17491 0.21259,-0.28475 0.11692,-0.10984 0.21258,-0.16145 0.21258,-0.11468 0,0.0468 -0.0957,0.17491 -0.21258,0.28475 -0.11692,0.10984 -0.21259,0.16145 -0.21259,0.11468 z"
   id="path18"
   transform="scale(0.64)" /><path
   style="fill:#aad400;stroke-width:0.085034"
   d="m 320.29867,349.04337 c -4.3611,-5.75746 -5.94363,-8.29737 -9.15261,-14.68963 -1.89264,-3.77012 -2.85869,-5.88032 -4.04478,-8.83524 -3.64605,-9.08347 -5.54272,-18.10784 -6.07816,-28.91986 -0.34421,-6.9504 -0.33021,-11.11827 0.046,-13.68943 0.41798,-2.85685 1.72104,-7.18813 3.24333,-10.78063 3.64225,-8.59544 10.45645,-18.22596 19.19907,-27.13408 3.47974,-3.54562 11.64688,-11.33923 21.13137,-20.16492 15.30489,-14.24181 23.10399,-22.03836 29.28147,-29.27192 1.27071,-1.48794 3.86635,-4.73259 4.85968,-6.07479 l 0.76531,-1.03408 45.06446,0.0145 45.06446,0.0146 1.43266,2.12585 c 12.25894,18.19038 20.37476,37.92884 24.75398,60.20408 2.32169,11.80943 3.45578,23.915 3.4534,36.86225 -0.002,12.68127 -1.10849,21.60638 -3.77556,30.46368 -2.15546,7.15824 -5.99244,15.68703 -9.95706,22.13241 -2.0042,3.25829 -4.90376,7.39134 -7.24742,10.33052 l -0.40457,0.50737 -20.35385,7e-4 -20.35385,6.9e-4 0.0516,-0.27636 c 0.37761,-2.02331 1.65716,-10.4126 2.21456,-14.51956 2.98705,-22.0087 3.74084,-39.92693 2.51123,-59.69387 -0.85665,-13.77131 -1.80373,-20.35776 -3.53977,-24.61735 -1.09506,-2.68684 -3.13986,-5.44983 -5.48067,-7.40561 -2.20534,-1.84261 -5.1488,-3.33845 -8.01322,-4.07225 -2.16553,-0.55476 -4.52608,-0.74842 -6.85742,-0.56257 -5.48864,0.43754 -10.65191,3.23314 -14.04715,7.60569 -1.95951,2.52356 -3.22946,5.01812 -3.67876,7.2262 -0.48574,2.38712 -0.29988,8.78148 0.5479,18.8497 0.61227,7.2714 0.73718,9.40609 0.85693,14.64429 0.27916,12.21247 -0.68481,27.97194 -2.56315,41.90333 -0.7572,5.61609 -2.68083,17.4617 -3.35899,20.68452 l -0.0492,0.23384 H 358.8403 321.8607 Z"
   id="path19"
   transform="scale(0.64)" /><path
   style="fill:#aad400;stroke-width:0.085034"
   d="m 321.06698,350.06378 c -3.9509,-5.15548 -5.95289,-8.15529 -8.08072,-12.10829 -0.83621,-1.55349 -3.12119,-6.11947 -3.84996,-7.69319 -5.0258,-10.85296 -7.47551,-21.01596 -8.11434,-33.66366 -0.13444,-2.6615 -0.25645,-6.82106 -0.25567,-8.71599 0.002,-3.86017 0.3386,-6.12963 1.49124,-10.04205 2.94797,-10.0063 9.69411,-20.66874 19.90132,-31.45455 2.89417,-3.05822 10.72031,-10.58745 19.97551,-19.21768 7.9231,-7.38808 11.0396,-10.31796 13.5204,-12.71077 10.95322,-10.56471 16.73303,-16.73517 21.90573,-23.38627 0.67294,-0.86527 1.39572,-1.81125 1.60618,-2.10217 l 0.38265,-0.52895 45.0669,0.0188 45.06688,0.0188 1.42986,2.12585 c 0.78642,1.16922 1.88412,2.83906 2.43933,3.71076 15.16589,23.81098 23.75491,51.43809 25.46773,81.91849 0.37568,6.68545 0.39588,15.66448 0.0477,21.21599 -0.85259,13.59494 -3.7129,24.09364 -9.91552,36.39456 -2.91168,5.77439 -6.0206,10.59484 -10.79019,16.73044 l -0.41314,0.53146 h -20.352 c -11.1936,0 -20.352,-0.0228 -20.352,-0.0507 0,-0.0279 0.11348,-0.72624 0.25217,-1.55187 2.5668,-15.28032 4.23994,-30.54843 4.85628,-44.31576 0.29424,-6.57277 0.25061,-17.62651 -0.0953,-24.14966 -0.45652,-8.60817 -1.03365,-15.56653 -1.65858,-19.99716 -0.93103,-6.60088 -2.06874,-9.89955 -4.56771,-13.24351 -0.74216,-0.99311 -2.66282,-2.93783 -3.595,-3.64003 -2.94384,-2.21756 -6.00873,-3.51217 -9.6476,-4.07514 -1.18971,-0.18406 -4.37008,-0.20682 -5.61225,-0.0402 -3.54689,0.47587 -6.99101,1.94202 -9.82737,4.18348 -0.86418,0.68294 -2.38841,2.21152 -3.1301,3.13906 -1.39879,1.74928 -2.80451,4.14414 -3.35971,5.72377 -1.01473,2.88702 -0.98945,7.39307 0.11794,21.01942 0.16723,2.05783 0.35823,4.44941 0.42444,5.31463 1.04108,13.60578 0.17075,33.68096 -2.21561,51.10544 -0.77418,5.65287 -2.67552,17.31407 -3.31713,20.34439 l -0.0495,0.23384 h -36.97728 -36.97728 z"
   id="path20"
   transform="scale(0.64)" /><path
   style="fill:#aad400;stroke-width:0.085034"
   d="m 395.95406,350.8716 c 0.13828,-0.65714 0.88348,-4.86393 1.36698,-7.71684 2.66132,-15.70317 3.85979,-27.16687 4.47607,-42.81462 0.12523,-3.1796 0.1236,-12.23948 -0.003,-15.30613 -0.13539,-3.28616 -0.21711,-4.52001 -0.64771,-9.77891 -0.48289,-5.89745 -0.72366,-9.19662 -0.71057,-9.73639 l 0.0103,-0.42517 0.0704,0.46768 c 0.47878,3.18177 1.18385,11.00256 1.43741,15.94388 0.35344,6.88803 0.35363,16.67554 4.4e-4,23.72449 -0.67547,13.48131 -2.33079,27.36285 -5.14715,43.16409 -0.25516,1.43158 -0.46392,2.62737 -0.46392,2.65732 0,0.0299 -0.0987,0.0544 -0.21934,0.0544 -0.19452,0 -0.21378,-0.0265 -0.17014,-0.23384 z"
   id="path21"
   transform="scale(0.64)" /><path
   style="fill:#aad400;stroke-width:0.085034"
   d="m 387.79762,388.71767 c -15.78735,-2.00258 -30.37441,-7.43142 -43.51892,-16.19639 -9.49015,-6.32817 -17.86071,-14.28467 -24.70808,-23.48588 -11.06593,-14.86992 -17.62284,-32.26836 -19.18488,-50.90615 -0.36574,-4.36394 -0.3912,-10.36093 -0.0557,-13.10716 0.85191,-6.97208 3.12351,-13.57533 6.89953,-20.0561 1.01895,-1.74881 0.98192,-1.70068 1.30842,-1.70068 h 0.28761 l -0.59691,0.99865 c -3.33131,5.57345 -5.67854,11.28383 -6.90022,16.78701 -0.66799,3.00903 -0.77637,6.12409 -0.47438,13.6344 0.66479,16.53292 3.8019,27.8835 11.87953,42.98212 2.11382,3.95113 3.96755,6.79368 7.32159,11.22707 3.59164,4.74746 5.97594,7.48996 9.76157,11.22807 4.76243,4.70264 9.29533,8.3693 15.08113,12.19909 3.67842,2.43485 6.64299,4.15497 10.54422,6.11805 9.22213,4.64051 17.91429,7.51393 28.96436,9.5749 1.19564,0.223 2.51798,0.30077 2.978,0.17514 0.44583,-0.12176 0.89765,-0.60952 1.08117,-1.16718 0.0752,-0.22851 0.57931,-2.46268 1.12023,-4.96481 2.55229,-11.80608 4.33776,-20.49369 5.93879,-28.8966 0.20785,-1.09084 0.39729,-2.00273 0.42098,-2.02643 0.0237,-0.0237 0.11745,-0.0304 0.20834,-0.015 0.15848,0.027 0.14825,0.11863 -0.25022,2.23901 -1.63063,8.67716 -3.98465,19.76155 -6.79467,31.99405 -0.63968,2.78464 -0.81141,3.42025 -0.92134,3.40988 -0.0743,-0.007 -0.24989,-0.0273 -0.3902,-0.0451 z"
   id="path22"
   transform="scale(0.64)" /><path
   style="fill:#aad400;stroke-width:0.085034"
   d="m 308.40217,262.9948 c 0.14079,-0.22323 0.24358,-0.28788 0.4918,-0.30932 l 0.31382,-0.0271 -0.17799,0.28222 c -0.14078,0.22322 -0.24358,0.28788 -0.4918,0.30932 l -0.31381,0.0271 z"
   id="path23"
   transform="scale(0.64)" /><path
   style="fill:#aad400;stroke-width:0.085034"
   d="m 333.92857,363.85013 c -4.29647,-3.77681 -8.50997,-8.22203 -11.95945,-12.61714 -4.02745,-5.13151 -6.55469,-8.84103 -8.73943,-12.82784 -0.94033,-1.71596 -3.49047,-6.81148 -4.32565,-8.64324 -4.66546,-10.23256 -7.0646,-19.95387 -7.79618,-31.59014 -0.28104,-4.47016 -0.41299,-10.96282 -0.26527,-13.05272 0.20191,-2.85658 0.75085,-5.3797 1.96105,-9.01361 3.0022,-9.01481 9.17751,-18.69851 18.11049,-28.3996 3.55941,-3.86547 10.86725,-10.90077 25.21881,-24.27828 9.00354,-8.39247 15.60197,-14.78548 20.3844,-19.74984 l 1.57693,-1.6369 h 55.04957 55.04956 l 1.28895,2.40221 c 11.28688,21.0353 17.83125,44.68965 19.45018,70.30187 0.29699,4.69827 0.34199,6.3722 0.34299,12.7551 0.001,6.67374 -0.0442,8.11993 -0.38595,12.32993 -0.86124,10.61013 -3.04758,19.26094 -7.30691,28.91157 -0.90258,2.04505 -3.2741,6.83425 -4.18965,8.46088 -4.67013,8.29725 -11.04854,16.53716 -18.39948,23.76927 -0.97577,0.96001 -2.26951,2.19406 -2.87496,2.74235 l -1.10081,0.99688 h -15.12864 -15.12864 l 0.0465,-0.19132 c 0.2426,-0.99882 1.92047,-10.35978 2.61013,-14.56208 2.73184,-16.64606 4.14115,-29.25011 4.89663,-43.79251 0.15725,-3.02715 0.25537,-16.87164 0.14283,-20.15306 -0.0444,-1.29481 -0.0671,1.14795 -0.0671,7.22789 0,6.21073 -0.0349,9.88562 -0.10767,11.35204 -0.48511,9.77072 -1.02942,16.45693 -2.0213,24.82993 -0.42787,3.61185 -0.66959,5.42083 -0.70217,5.25486 -0.0156,-0.0796 0.10738,-1.24672 0.27336,-2.59353 1.15952,-9.40875 1.8417,-17.67046 2.36124,-28.5967 0.0736,-1.54795 0.10557,-5.39471 0.10208,-12.28742 -0.005,-9.34235 -0.018,-10.23917 -0.192,-13.0102 -1.0245,-16.31202 -1.97336,-22.68162 -4.02176,-26.9975 -3.02879,-6.38154 -9.43064,-10.70343 -16.63951,-11.23332 -5.62492,-0.41346 -10.83493,1.34476 -15.00273,5.06297 -2.15137,1.91928 -4.41923,5.12087 -5.41523,7.64479 -0.70439,1.78496 -0.86064,3.02795 -0.85903,6.83375 10e-4,3.33675 0.1602,6.49119 0.60049,11.9291 0.0473,0.58461 0.1999,2.45961 0.33902,4.16667 0.59945,7.35498 0.71068,10.03252 0.71006,17.09184 -0.001,12.5237 -0.9766,26.14542 -2.79814,39.07312 -1.22946,8.72566 -2.55886,16.3459 -5.02275,28.79069 l -0.82361,4.15999 -29.13168,-5.6e-4 -29.13167,-5.7e-4 z"
   id="path24"
   transform="scale(0.64)" /><path
   style="fill:#aad400;stroke-width:0.085034"
   d="m 440.615,263.03146 c -0.0246,-0.12861 -0.0662,-0.42517 -0.0924,-0.65901 -0.0262,-0.23384 -0.16405,-1.31944 -0.30639,-2.41243 -0.14234,-1.09299 -0.24559,-2.04962 -0.22945,-2.12585 0.0469,-0.22149 0.82953,4.79723 0.82953,5.31944 0,0.20803 -0.15627,0.11323 -0.20133,-0.12215 z"
   id="path25"
   transform="scale(0.64)" /><path
   style="fill:#aad400;stroke-width:0.085034"
   d="m 436.51552,248.79058 c -1.77959,-2.60696 -4.53899,-5.00618 -7.48442,-6.50749 -1.96885,-1.00355 -3.36452,-1.47481 -5.94436,-2.00718 -0.10786,-0.0223 -0.0768,-0.0383 0.085,-0.044 0.14031,-0.005 0.73342,0.10261 1.31803,0.23885 2.78669,0.6494 5.4179,1.88557 7.77722,3.65383 1.49696,1.12194 3.44803,3.21384 4.50988,4.83542 0.40921,0.62491 0.179,0.47564 -0.26138,-0.16948 z"
   id="path26"
   transform="scale(0.64)" /><path
   style="fill:#aad400;stroke-width:0.085034"
   d="m 333.97109,363.89083 c -4.75077,-4.15231 -9.24899,-9.00167 -13.35822,-14.40103 -4.11595,-5.40819 -6.20266,-8.6738 -8.74813,-13.69048 -2.64572,-5.21426 -4.10463,-8.42645 -5.4262,-11.94728 -3.97639,-10.59359 -5.59742,-20.75322 -5.62382,-35.2466 -0.008,-4.54325 0.0824,-5.48751 0.81166,-8.44976 2.54028,-10.31896 8.51973,-20.48902 18.711,-31.82432 1.18631,-1.31949 5.86249,-6.04818 8.48915,-8.58449 3.95892,-3.82274 8.14942,-7.77693 16.66546,-15.72562 5.7977,-5.41145 8.48491,-7.94502 10.50291,-9.9024 4.52657,-4.39062 7.73343,-7.56837 9.73639,-9.64805 l 2.33844,-2.428 55.05952,-6.4e-4 55.05953,-6.4e-4 0.80523,1.46648 c 1.00113,1.82324 3.84034,7.4654 4.67466,9.28962 5.09036,11.12987 8.7063,21.92771 11.34764,33.88605 2.25651,10.21605 3.53268,20.04028 4.13672,31.84524 0.14422,2.81857 0.19918,12.01652 0.0904,15.13606 -0.54378,15.60046 -3.29827,26.61608 -10.00813,40.02421 -3.866,7.7253 -8.86511,14.92288 -15.58113,22.43327 -1.53435,1.71583 -5.82031,6.04158 -7.48614,7.55562 l -1.13634,1.03281 H 449.89856 434.7654 l 0.0494,-0.23384 c 1.00033,-4.73284 3.34904,-18.76283 4.42361,-26.42432 1.7229,-12.28402 3.00785,-26.45953 3.1384,-34.62278 0.0367,-2.29706 0.0218,-2.14086 -0.1155,1.20441 -0.33254,8.10433 -0.9913,16.26534 -2.00084,24.78742 -0.42677,3.60258 -0.66957,5.42093 -0.70188,5.2564 -0.0155,-0.0788 0.10692,-1.24587 0.27196,-2.59354 1.34935,-11.01779 2.20958,-22.29427 2.43787,-31.95708 0.0931,-3.94088 0.0763,-17.68057 -0.0206,-16.87925 -0.0311,0.25723 -0.0393,-0.0872 -0.0181,-0.76531 0.0715,-2.29215 -0.58498,-12.04256 -1.20798,-17.94217 -0.12101,-1.14584 -0.23585,-2.09928 -0.25523,-2.11877 -0.0194,-0.0195 -0.0352,0.13039 -0.0352,0.33305 0,0.20267 -0.017,0.35147 -0.0378,0.33068 -0.0629,-0.0629 -0.31847,-2.18387 -0.28281,-2.34711 0.0183,-0.0836 0.087,0.24985 0.15265,0.74092 0.0657,0.49107 0.13331,0.82515 0.15026,0.74239 0.0408,-0.19912 -0.27499,-2.39988 -0.58845,-4.10123 -1.06485,-5.77967 -2.68642,-9.14877 -5.97594,-12.41606 -2.66556,-2.64756 -6.12299,-4.51209 -9.91451,-5.34672 -1.50738,-0.33182 -2.43686,-0.41997 -4.42176,-0.41934 -2.09815,6.6e-4 -3.24116,0.13371 -4.97024,0.57853 -1.4226,0.36598 -2.27918,0.68303 -3.70323,1.37069 -1.40096,0.6765 -2.12904,1.11906 -3.40136,2.06747 -2.92628,2.1813 -5.92244,6.23043 -6.95924,9.40502 -0.53109,1.62612 -0.56679,2.04251 -0.56128,6.54612 0.006,4.51193 0.0263,4.89187 0.80111,14.62585 0.7267,9.12989 0.79422,10.66017 0.79535,18.02721 0.002,12.84756 -0.95202,26.11008 -2.84119,39.4983 -1.21497,8.61024 -2.48639,15.88935 -4.97937,28.50766 l -0.819,4.1454 -29.13401,-10e-4 -29.13401,-10e-4 z M 442.49572,290.3699 c -0.0128,-1.88244 -0.0232,-0.34226 -0.0232,3.42262 0,3.76488 0.0104,5.30506 0.0232,3.42262 0.0128,-1.88244 0.0128,-4.9628 0,-6.84524 z m -0.0873,-4.42177 c -0.0189,-0.152 -0.0343,-0.0276 -0.0343,0.27636 0,0.304 0.0154,0.42836 0.0343,0.27636 0.0189,-0.152 0.0189,-0.40072 0,-0.55272 z"
   id="path27"
   transform="scale(0.64)" /><path
   style="fill:#aad400;stroke-width:0.085034"
   d="m 406.7602,244.81293 c 0.0847,-0.0935 0.19218,-0.17007 0.23895,-0.17007 0.0468,0 0.0158,0.0765 -0.0689,0.17007 -0.0847,0.0935 -0.19217,0.17006 -0.23894,0.17006 -0.0468,0 -0.0158,-0.0765 0.0689,-0.17006 z"
   id="path28"
   transform="scale(0.64)" /></svg>
