<?xml version="1.0" encoding="UTF-8" standalone="no"?>
<!-- Uploaded to: SVG Repo, www.svgrepo.com, Generator: SVG Repo Mixer Tools -->

<svg
   width="800"
   height="800"
   viewBox="0 0 1024 1024"
   class="icon"
   version="1.1"
   id="svg8"
   sodipodi:docname="broadcast-svgrepo-com.svg"
   xmlns:inkscape="http://www.inkscape.org/namespaces/inkscape"
   xmlns:sodipodi="http://sodipodi.sourceforge.net/DTD/sodipodi-0.dtd"
   xmlns="http://www.w3.org/2000/svg"
   xmlns:svg="http://www.w3.org/2000/svg">
  <defs
     id="defs8" />
  <sodipodi:namedview
     id="namedview8"
     pagecolor="#ffffff"
     bordercolor="#000000"
     borderopacity="0.25"
     inkscape:showpageshadow="2"
     inkscape:pageopacity="0.0"
     inkscape:pagecheckerboard="0"
     inkscape:deskcolor="#d1d1d1" />
  <path
     d="M 184,342.4 H 345.5 V 598 H 184 c -13.5,0 -24.4,-10.9 -24.4,-24.4 V 366.8 c 0,-13.5 11,-24.4 24.4,-24.4 z"
     fill="#f4ce26"
     id="path1" />
  <path
     d="M 369.9,622.4 H 184 c -26.9,0 -48.8,-21.9 -48.8,-48.8 V 366.8 C 135.2,339.9 157.1,318 184,318 H 369.9 Z M 184,366.8 V 573.6 H 321.1 V 366.8 Z"
     fill="#333333"
     id="path2" />
  <path
     d="m 692.9,388.9 h -68.6 v 185.9 h 68.6 c 13.5,0 24.4,-10.9 24.4,-24.4 V 413.3 c 0,-13.5 -10.9,-24.4 -24.4,-24.4 z"
     fill="#f4ce26"
     id="path3" />
  <path
     d="m 692.9,599.2 h -93 V 364.5 h 93 c 26.9,0 48.8,21.9 48.8,48.8 v 137.1 c 0,26.9 -21.8,48.8 -48.8,48.8 z M 648.8,550.4 H 693 V 413.3 h -44.2 z m 161.5,-91.8 h 46.5 c 12.8,0 23.2,10.4 23.2,23.2 0,12.8 -10.4,23.2 -23.2,23.2 h -46.5 c -12.8,0 -23.2,-10.4 -23.2,-23.2 0,-12.8 10.4,-23.2 23.2,-23.2 z m 14.7,119.3 40.2,23.2 c 11.1,6.4 14.9,20.6 8.5,31.7 -6.4,11.1 -20.6,14.9 -31.7,8.5 l -40.2,-23.2 c -11.1,-6.4 -14.9,-20.6 -8.5,-31.7 6.4,-11.1 20.6,-14.9 31.7,-8.5 z M 801.8,345.5 842,322.3 c 11.1,-6.4 25.3,-2.6 31.7,8.5 6.4,11.1 2.6,25.3 -8.5,31.7 L 825,385.7 c -11.1,6.4 -25.3,2.6 -31.7,-8.5 -6.4,-11.1 -2.6,-25.3 8.5,-31.7 z"
     fill="#333333"
     id="path4" />
  <path
     d="m 345.5,339.6 243,-129.2 c 11.9,-6.3 26.7,-1.8 33,10.1 1.9,3.5 2.9,7.5 2.9,11.5 v 497.2 c 0,13.5 -10.9,24.4 -24.4,24.4 -4.4,0 -8.8,-1.2 -12.6,-3.5 L 345.5,604.9 Z"
     fill="#ffffff"
     id="path5" />
  <path
     d="m 600,778 c -8.8,0 -17.5,-2.4 -25.1,-6.9 L 321.1,618.8 V 324.9 L 577,188.8 c 23.7,-12.7 53.4,-3.6 66,20.2 3.7,7.1 5.7,15 5.7,22.9 v 497.2 c 0.1,27 -21.8,48.9 -48.7,48.9 z M 369.9,591.1 600,729.2 V 232 L 369.9,354.3 Z"
     fill="#333333"
     id="path6" />
  <path
     d="m 206.1,609.6 h 93 v 138.3 c 0,13.5 -10.9,24.4 -24.4,24.4 h -44.2 c -13.5,0 -24.4,-10.9 -24.4,-24.4 z"
     fill="#ffffff"
     id="path7" />
  <path
     d="m 274.7,796.7 h -44.2 c -26.9,0 -48.8,-21.9 -48.8,-48.8 V 585.2 h 141.8 v 162.7 c 0,26.9 -21.9,48.8 -48.8,48.8 z M 230.5,634 v 113.9 h 44.2 V 634 Z"
     fill="#333333"
     id="path8" />
  <path
     style="fill:#000000;fill-opacity:1;stroke-width:0.435374"
     d="m 221.44238,795.6228 c -9.77563,-1.94239 -18.66026,-6.8296 -25.70975,-14.14235 -6.00903,-6.23338 -9.93269,-13.10316 -12.30839,-21.5502 l -1.22016,-4.33842 -0.11827,-66.72108 -0.11827,-66.72109 h -1.02202 c -2.06803,0 -8.79239,-1.37017 -11.98653,-2.44241 -3.75038,-1.25897 -9.29874,-3.96659 -12.15477,-5.9316 -8.71526,-5.99625 -15.7141,-15.34708 -19.00946,-25.39768 -2.49114,-7.59781 -2.38833,-2.51057 -2.38833,-118.17389 0,-115.66332 -0.10279,-110.57609 2.38833,-118.17388 5.27948,-16.10203 18.11864,-28.00914 35.10833,-32.55972 l 3.64106,-0.97524 79.02041,-0.22721 79.02041,-0.22721 122.7717,-65.30244 c 86.45536,-45.98571 123.94337,-65.71066 126.73274,-66.6825 13.79517,-4.80641 28.82547,-3.11042 41.48649,4.68125 4.46328,2.74675 10.98328,8.92916 13.96423,13.24133 2.91989,4.22374 5.77111,10.26891 7.29426,15.46535 l 1.20786,4.12081 0.22375,70.53061 0.22373,70.53063 26.12246,0.23316 26.12244,0.23318 4.34351,1.18172 c 8.57095,2.33189 16.97019,7.36916 23.08562,13.84515 6.74452,7.14213 11.00405,15.74689 12.6043,25.46199 0.64332,3.90548 0.69983,11.48289 0.58427,78.3373 l -0.12787,74.01361 -1.19332,4.35374 c -1.6016,5.8434 -5.64226,13.87186 -9.24102,18.36127 -7.95433,9.92285 -19.5784,16.39452 -32.23232,17.94521 -2.40513,0.29475 -12.86853,0.48065 -27.09425,0.48141 l -23.17583,10e-4 -0.12224,69.33334 -0.12211,69.33332 -1.20003,4.08956 c -4.96448,16.91843 -17.72073,29.65011 -34.31841,34.25233 -5.5222,1.53125 -15.31107,1.94346 -20.9428,0.88197 -4.3564,-0.82116 -9.60013,-2.49343 -12.7522,-4.06687 C 577.63265,772.30084 520.6204,738.18802 452.13605,697.09219 339.88041,629.73027 327.41541,622.35741 325.55101,622.21906 l -2.06801,-0.15342 -0.006,62.19167 c -0.004,36.41786 -0.18205,64.26662 -0.42953,67.19847 -1.8628,22.06742 -17.26647,39.46601 -38.96493,44.01132 -3.61468,0.75716 -6.07797,0.81807 -31.78233,0.7856 -21.68608,-0.0274 -28.52753,-0.16706 -30.85693,-0.6299 z M 274.72109,690.93878 V 633.90477 H 252.517 230.31292 v 57.03401 57.03401 h 22.20408 22.20409 z m 325.65986,-210.5291 c 0,-136.86311 -0.14694,-248.765 -0.32652,-248.67085 -0.1796,0.0941 -52.09832,27.67505 -115.37494,61.2909 l -115.04841,61.11974 0.10969,118.6311 0.10957,118.63109 114.72109,68.88326 c 63.0966,37.88578 114.96599,68.89979 115.26531,68.91999 0.43476,0.0294 0.54421,-50.00224 0.54421,-248.80523 z M 321.30612,470.20408 V 366.58504 H 252.517 183.7279 v 103.61904 103.61905 h 68.7891 68.78912 z m 371.80953,11.7551 v -68.78911 h -22.20409 -22.20408 v 68.78911 68.78912 h 22.20408 22.20409 z"
     id="path9" />
  <path
     style="fill:#000000;fill-opacity:1;stroke-width:0.435374"
     d="m 810.66666,388.30698 c -11.28152,-1.2818 -20.0661,-11.09615 -20.06964,-22.4223 -0.001,-4.35137 0.60128,-6.90046 2.56202,-10.83706 2.85115,-5.72428 4.32797,-6.79865 28.39786,-20.65913 11.83111,-6.81286 22.69426,-12.86854 24.14037,-13.45709 1.98379,-0.80738 3.69808,-1.11874 6.983,-1.26832 3.863,-0.1759 4.73789,-0.069 7.76178,0.94839 4.32819,1.4562 7.37165,3.40563 10.10532,6.47274 3.9765,4.46153 5.84686,9.38065 5.85563,15.40054 0.0102,7.27097 -3.66073,14.47042 -9.41988,18.4724 -2.29361,1.59379 -39.98046,23.35248 -43.47291,25.0993 -4.08074,2.04105 -8.25292,2.77212 -12.84355,2.25053 z"
     id="path10" />
  <path
     style="fill:#000000;fill-opacity:1;stroke-width:0.435374"
     d="m 804.18161,503.91739 c -7.05332,-1.91999 -13.49353,-8.20923 -15.76576,-15.39619 -1.23991,-3.92176 -1.23551,-9.65131 0.0102,-13.59328 2.32611,-7.35937 8.77728,-13.39644 16.45127,-15.39526 3.6906,-0.96128 53.60186,-0.96128 57.29246,0 11.27947,2.93793 18.96509,14.09797 17.36109,25.20946 -1.19184,8.25624 -6.89202,15.40635 -14.87807,18.6625 -2.38627,0.97295 -2.491,0.97664 -30.2585,1.06427 -23.34725,0.0737 -28.24471,-0.0157 -30.21295,-0.5515 z"
     id="path11" />
  <path
     style="fill:#000000;fill-opacity:1;stroke-width:0.435374"
     d="m 850.34999,643.92403 c -1.28166,-0.19623 -3.24084,-0.69418 -4.35375,-1.10656 -1.1129,-0.41238 -11.80372,-6.35786 -23.75738,-13.21218 -19.6399,-11.26169 -22.03519,-12.75606 -24.86065,-15.51005 -4.69616,-4.57738 -6.75534,-9.45301 -6.78382,-16.06256 -0.0262,-6.09993 1.89509,-10.9818 6.14949,-15.62473 3.00672,-3.28131 7.70696,-5.95964 12.0356,-6.85827 3.36035,-0.69761 8.91337,-0.32676 12.05672,0.80519 1.40276,0.50514 12.34836,6.55847 24.32354,13.45185 18.34682,10.56113 22.19317,12.94449 24.44272,15.14566 4.48208,4.38571 6.80965,9.88893 6.80054,16.07902 -0.0102,6.61906 -2.02459,11.47951 -6.70978,16.1861 -1.69454,1.70228 -4.06894,3.59521 -5.27644,4.2065 -4.37696,2.21582 -9.72042,3.16549 -14.06679,2.50003 z"
     id="path12" />
</svg>
