<?xml version="1.0" encoding="UTF-8" standalone="no"?>
<!-- Created with Inkscape (http://www.inkscape.org/) -->

<svg
   width="650"
   height="500"
   viewBox="0 0 171.97917 132.29166"
   version="1.1"
   id="svg1"
   inkscape:version="1.3.1 (9b9bdc1480, 2023-11-25, custom)"
   sodipodi:docname="icon_question_and_answer_small.svg"
   xmlns:inkscape="http://www.inkscape.org/namespaces/inkscape"
   xmlns:sodipodi="http://sodipodi.sourceforge.net/DTD/sodipodi-0.dtd"
   xmlns="http://www.w3.org/2000/svg"
   xmlns:svg="http://www.w3.org/2000/svg">
  <sodipodi:namedview
     id="namedview1"
     pagecolor="#ffffff"
     bordercolor="#000000"
     borderopacity="0.25"
     inkscape:showpageshadow="2"
     inkscape:pageopacity="0.0"
     inkscape:pagecheckerboard="0"
     inkscape:deskcolor="#d1d1d1"
     inkscape:document-units="pt"
     inkscape:zoom="1.0476431"
     inkscape:cx="396.60453"
     inkscape:cy="408.53608"
     inkscape:window-width="2488"
     inkscape:window-height="1376"
     inkscape:window-x="1992"
     inkscape:window-y="27"
     inkscape:window-maximized="1"
     inkscape:current-layer="layer1" />
  <defs
     id="defs1" />
  <g
     inkscape:label="Layer 1"
     inkscape:groupmode="layer"
     id="layer1">
    <path
       d="M 19.374767,88.375603 H 38.598399 V 116.963 c 0,2.79053 -2.253092,5.04362 -5.043619,5.04362 h -9.136394 c -2.790527,0 -5.043619,-2.25309 -5.043619,-5.04362 z"
       fill="#ffffff"
       id="path7"
       style="stroke-width:0.206706" />
    <path
       d="M 9.5332183,38.164262 H 77.456718 c 2.955891,0 5.353678,2.397787 5.353678,5.353679 v 43.139483 c 0,2.955892 -2.397787,5.353678 -5.353678,5.353678 H 41.924004 L 31.154636,102.36706 19.971857,92.011102 H 9.5332183 c -2.9558919,0 -5.3536782,-2.397786 -5.3536782,-5.353678 V 43.517941 c 0,-2.955892 2.3977863,-5.353679 5.3536782,-5.353679 z"
       fill="#8caaff"
       id="path1"
       style="stroke-width:0.206706" />
    <path
       d="M 31.154636,102.34639 19.971857,91.990432 H 9.5332183 c -2.9558919,0 -5.3536782,-2.397786 -5.3536782,-5.353678 V 43.517941 c 0,-2.955892 2.3977863,-5.353679 5.3536782,-5.353679 H 77.477388 c 2.955892,0 5.353678,2.397787 5.353678,5.353679 v 43.139483 c 0,2.955892 -2.397786,5.353678 -5.353678,5.353678 H 41.944675 Z M 12.199721,83.97025 h 10.914062 l 7.937501,7.338053 7.648111,-7.338053 H 74.790214 V 46.184444 H 12.199721 Z"
       fill="#333333"
       id="path2"
       style="stroke-width:0.206706" />
    <path
       d="M 51.432468,13.194211 H 156.62501 c 2.95589,0 5.35368,2.397786 5.35368,5.353678 v 82.475581 c 0,2.95589 -2.39779,5.35368 -5.35368,5.35368 H 120.0381 L 105.67205,120.18509 90.747895,106.37715 H 51.411797 c -2.955892,0 -5.353678,-2.39779 -5.353678,-5.35368 V 18.547889 c 0.02067,-2.955892 2.418457,-5.353678 5.374349,-5.353678 z"
       fill="#ffffff"
       id="path3"
       style="stroke-width:0.206706" />
    <path
       d="M 105.75473,127.54381 88.680838,111.73083 h -37.24837 c -5.891113,0 -10.707357,-4.79557 -10.707357,-10.70736 V 18.547889 c 0,-5.891113 4.795573,-10.7073567 10.707357,-10.7073567 H 156.62501 c 5.89112,0 10.70736,4.7955727 10.70736,10.7073567 v 82.475581 c 0,5.89112 -4.79557,10.70736 -10.70736,10.70736 H 122.18784 Z M 51.432468,18.547889 v 82.475581 h 41.423826 l 12.753746,11.80289 12.27832,-11.80289 h 38.73665 V 18.547889 Z"
       fill="#333333"
       id="path4"
       style="stroke-width:0.206706" />
    <path
       d="m 117.70233,63.134313 h -12.44369 l -0.0413,2.253093 c -0.062,2.91455 -2.43913,5.250325 -5.353677,5.250325 h -0.0207 c -2.852543,0 -5.167647,-2.315104 -5.167647,-5.167643 v -0.103353 l 0.144694,-7.668782 c 0.06201,-2.852539 2.335775,-5.146973 5.146973,-5.250325 0.165367,-0.02067 0.330727,-0.02067 0.496097,-0.02067 h 11.84419 V 42.629107 H 92.442884 c -2.955891,0 -5.353678,-2.397786 -5.353678,-5.353678 0,-2.955892 2.397787,-5.353678 5.353678,-5.353678 h 25.218096 c 2.9559,0 5.35368,2.397786 5.35368,5.353678 v 20.505207 c 0,2.935221 -2.37711,5.312337 -5.31233,5.353677 z m -23.213061,19.86442 v -0.537435 c 0,-2.955892 2.397786,-5.353678 5.353674,-5.353678 2.955897,0 5.353687,2.397786 5.353687,5.353678 v 0.537435 c 0,2.955892 -2.39779,5.353678 -5.353687,5.353678 -2.955888,0 -5.353674,-2.397786 -5.353674,-5.353678 z"
       fill="#333333"
       id="path5"
       style="stroke-width:0.206706" />
    <path
       style="fill:#000000;stroke-width:0.179989"
       d="m 97.268828,119.53646 -8.369473,-7.80115 -19.618764,-0.0615 c -18.504964,-0.058 -19.674964,-0.0803 -20.608699,-0.39385 -3.866738,-1.29831 -6.25241,-3.7036 -7.496454,-7.55811 -0.233253,-0.7227 -0.321351,-1.9786 -0.405517,-5.780931 l -0.107524,-4.857648 -4.745203,4.558105 -4.745203,4.558104 -0.564463,-0.52547 C 30.297076,101.385 27.82026,99.089949 25.103498,96.573892 l -4.939571,-4.574641 -5.949743,-0.09 L 8.2644378,91.819261 7.241815,91.317074 C 6.0832439,90.748174 5.237764,89.87614 4.6836827,88.678647 L 4.3046886,87.859552 V 65.090988 42.322423 L 4.8068721,41.299798 C 5.3513294,40.19109 6.1326197,39.405636 7.3245035,38.768753 l 0.7599474,-0.40608 16.3339681,-0.0487 16.333971,-0.0487 0.0012,-10.03067 c 0.0012,-10.614973 0.0598,-11.551666 0.843275,-13.535828 1.200239,-3.039604 3.665531,-5.2773577 7.074867,-6.4218727 0.952207,-0.319656 3.023946,-0.334301 54.356568,-0.384251 35.61985,-0.03466 53.83286,0.0093 54.7686,0.132089 3.61226,0.474137 6.75009,2.6831487 8.2971,5.8411027 1.27144,2.59541 1.19026,-0.536066 1.19026,45.915472 0,46.470545 0.0821,43.318325 -1.19583,45.926745 -1.22458,2.49958 -3.35638,4.34954 -6.17576,5.35924 l -1.53785,0.55075 -18.20344,0.09 -18.20344,0.09 -8.04775,7.73951 c -4.42626,4.25673 -8.10046,7.75313 -8.1649,7.76979 -0.0644,0.0166 -3.88341,-3.48025 -8.486621,-7.77088 z m 15.786522,-13.73521 4.89722,-4.71253 h 19.35626 19.35626 V 59.781321 18.473926 H 104.0184 51.371721 v 41.307395 41.307399 h 20.700555 20.700558 l 6.421022,5.94705 6.421024,5.94705 1.27163,-1.23452 c 0.6994,-0.67899 3.47538,-3.35516 6.16884,-5.94705 z M 34.989292,87.677817 38.855586,83.989796 h 0.948403 0.948401 V 65.000992 46.012188 H 26.443292 12.134196 v 18.988804 18.988804 l 5.444655,0.0069 5.444656,0.0069 3.959752,3.679533 c 2.177862,2.023742 4.00025,3.680245 4.049744,3.681121 0.0495,8.27e-4 1.829827,-1.658022 3.956289,-3.686437 z"
       id="path6" />
    <path
       style="fill:#000000;stroke-width:0.179989"
       d="M 98.058143,70.199575 C 97.02991,69.834911 96.004631,68.905384 95.373215,67.765402 l -0.534235,-0.964524 0.04761,-4.850162 c 0.02619,-2.667587 0.125434,-5.139175 0.220553,-5.492419 0.264425,-0.982009 1.160285,-2.270865 2.002495,-2.880956 1.413206,-1.023723 1.921396,-1.085559 8.921312,-1.085559 h 6.35692 V 47.548892 42.606 L 101.81354,42.55421 91.239208,42.50242 90.216583,42.000235 c -1.110673,-0.545422 -1.897881,-1.329422 -2.52793,-2.517629 -0.574584,-1.083607 -0.574584,-3.316111 0,-4.399714 0.630049,-1.188209 1.417257,-1.972209 2.52793,-2.517633 l 1.022625,-0.502183 h 13.859132 13.85913 l 0.90716,0.478861 c 1.1656,0.615272 2.27433,1.823004 2.70957,2.95148 0.32411,0.840373 0.34302,1.504388 0.34302,12.048685 0,10.567976 -0.0183,11.206712 -0.34512,12.054168 -0.4534,1.175661 -1.6874,2.472014 -2.8562,3.000523 -0.92445,0.418015 -1.03922,0.425149 -7.70899,0.479153 l -6.77056,0.05482 -0.0884,1.691008 c -0.10748,2.054775 -0.64123,3.307837 -1.86954,4.389042 -1.37952,1.214299 -3.468577,1.60999 -5.220216,0.988767 z"
       id="path7-6" />
    <path
       style="fill:#000000;stroke-width:0.179989"
       d="m 98.493328,88.06767 c -2.514316,-0.706679 -4.097994,-3.068319 -3.879862,-5.785784 0.166481,-2.074009 1.212817,-3.67172 2.9665,-4.529718 2.628434,-1.285972 5.865564,-0.04415 7.083474,2.717349 0.54479,1.235277 0.54396,3.260797 -0.002,4.52958 -1.00891,2.34525 -3.80057,3.734045 -6.168262,3.068573 z"
       id="path8" />
  </g>
</svg>
