<?xml version="1.0" encoding="UTF-8" standalone="no"?>
<!-- Uploaded to: SVG Repo, www.svgrepo.com, Generator: SVG Repo Mixer Tools -->

<svg
   width="800"
   height="800"
   viewBox="0 0 1024 1024"
   class="icon"
   version="1.1"
   id="svg5"
   sodipodi:docname="question-and-answer-svgrepo-com.svg"
   xmlns:inkscape="http://www.inkscape.org/namespaces/inkscape"
   xmlns:sodipodi="http://sodipodi.sourceforge.net/DTD/sodipodi-0.dtd"
   xmlns="http://www.w3.org/2000/svg"
   xmlns:svg="http://www.w3.org/2000/svg">
  <defs
     id="defs5" />
  <sodipodi:namedview
     id="namedview5"
     pagecolor="#ffffff"
     bordercolor="#000000"
     borderopacity="0.25"
     inkscape:showpageshadow="2"
     inkscape:pageopacity="0.0"
     inkscape:pagecheckerboard="0"
     inkscape:deskcolor="#d1d1d1" />
  <path
     d="m 118.9,388.7 h 328.6 c 14.3,0 25.9,11.6 25.9,25.9 v 208.7 c 0,14.3 -11.6,25.9 -25.9,25.9 H 275.6 l -52.1,50.1 -54.1,-50.1 H 118.9 C 104.6,649.2 93,637.6 93,623.3 V 414.6 c 0,-14.3 11.6,-25.9 25.9,-25.9 z"
     fill="#8caaff"
     id="path1" />
  <path
     d="M 223.5,699.2 169.4,649.1 H 118.9 C 104.6,649.1 93,637.5 93,623.2 V 414.6 c 0,-14.3 11.6,-25.9 25.9,-25.9 h 328.7 c 14.3,0 25.9,11.6 25.9,25.9 v 208.7 c 0,14.3 -11.6,25.9 -25.9,25.9 H 275.7 Z m -91.7,-88.9 h 52.8 l 38.4,35.5 37,-35.5 H 434.6 V 427.5 H 131.8 Z"
     fill="#333333"
     id="path2" />
  <path
     d="m 321.6,267.9 h 508.9 c 14.3,0 25.9,11.6 25.9,25.9 v 399 c 0,14.3 -11.6,25.9 -25.9,25.9 h -177 L 584,785.5 511.8,718.7 H 321.5 c -14.3,0 -25.9,-11.6 -25.9,-25.9 v -399 c 0.1,-14.3 11.7,-25.9 26,-25.9 z"
     fill="#ffffff"
     id="path3" />
  <path
     d="M 584.4,821.1 501.8,744.6 H 321.6 c -28.5,0 -51.8,-23.2 -51.8,-51.8 v -399 c 0,-28.5 23.2,-51.8 51.8,-51.8 h 508.9 c 28.5,0 51.8,23.2 51.8,51.8 v 399 c 0,28.5 -23.2,51.8 -51.8,51.8 H 663.9 Z M 321.6,293.8 v 399 H 522 l 61.7,57.1 59.4,-57.1 h 187.4 v -399 H 321.6 Z"
     fill="#333333"
     id="path4" />
  <path
     d="M 642.2,509.5 H 582 l -0.2,10.9 c -0.3,14.1 -11.8,25.4 -25.9,25.4 h -0.1 c -13.8,0 -25,-11.2 -25,-25 v -0.5 l 0.7,-37.1 c 0.3,-13.8 11.3,-24.9 24.9,-25.4 0.8,-0.1 1.6,-0.1 2.4,-0.1 h 57.3 V 410.3 H 520 c -14.3,0 -25.9,-11.6 -25.9,-25.9 0,-14.3 11.6,-25.9 25.9,-25.9 h 122 c 14.3,0 25.9,11.6 25.9,25.9 v 99.2 c 0,14.2 -11.5,25.7 -25.7,25.9 z M 529.9,605.6 V 603 c 0,-14.3 11.6,-25.9 25.9,-25.9 14.3,0 25.9,11.6 25.9,25.9 v 2.6 c 0,14.3 -11.6,25.9 -25.9,25.9 -14.3,0 -25.9,-11.6 -25.9,-25.9 z"
     fill="#333333"
     id="path5" />
  <path
     style="fill:#000000;stroke-width:0.870748"
     d="m 543.34694,782.36205 -40.4898,-37.74037 -94.91157,-0.29732 c -89.52323,-0.28044 -95.18345,-0.38862 -99.70067,-1.90534 -18.70649,-6.28098 -30.24788,-17.9173 -36.26631,-36.56459 -1.12843,-3.4963 -1.55463,-9.57207 -1.96181,-27.96699 l -0.52018,-23.5003 -22.95632,22.05118 -22.95632,22.05119 -2.73076,-2.54214 c -1.5019,-1.39817 -13.48423,-12.50117 -26.62737,-24.67332 l -23.89663,-22.13119 -28.78364,-0.43538 -28.78366,-0.43536 -4.94724,-2.42948 c -5.60493,-2.75243 -9.695189,-6.97115 -12.375721,-12.76438 l -1.833496,-3.96261 V 518.96599 408.81633 l 2.429461,-4.94725 c 2.633973,-5.3637 6.413696,-9.16357 12.179786,-12.24468 l 3.67647,-1.96453 79.0204,-0.23559 79.02041,-0.23558 0.006,-48.52633 c 0.006,-51.35307 0.28928,-55.8846 4.07959,-65.48357 5.80651,-14.70498 17.73309,-25.53077 34.22676,-31.0677 4.60658,-1.54643 14.62923,-1.61728 262.96598,-1.85893 172.32151,-0.16768 260.43231,0.0448 264.95923,0.63902 17.47541,2.29378 32.65557,12.98052 40.1397,28.25806 6.15094,12.55606 5.75822,-2.59338 5.75822,222.12966 0,224.81499 0.39707,209.56521 -5.78516,222.18418 -5.92429,12.09249 -16.23752,21.04218 -29.87706,25.92691 l -7.43982,2.66443 -88.06452,0.43536 -88.06452,0.43538 -38.93335,37.44218 c -21.41335,20.5932 -39.18839,37.50807 -39.5001,37.58863 -0.31172,0.0805 -18.78717,-16.83672 -41.05656,-37.59393 z m 76.37198,-66.44816 23.69172,-22.79824 h 93.64161 93.64163 V 493.27891 293.44218 H 576 321.30612 v 199.83673 199.83674 h 100.14505 100.14507 l 31.06359,28.77063 31.06359,28.77063 6.1519,-5.97238 c 3.38353,-3.28481 16.81315,-16.2316 29.8436,-28.77064 z m -377.66764,-87.67744 18.70434,-17.84189 h 4.58818 4.58817 V 518.53061 426.66666 H 200.70748 131.483 v 91.86395 91.86395 l 26.34013,0.0334 26.34013,0.0334 19.15647,17.80083 c 10.53605,9.79045 19.35239,17.80427 19.59183,17.80851 0.23945,0.004 8.85233,-8.02117 19.13972,-17.83423 z"
     id="path6" />
  <path
     style="fill:#000000;stroke-width:0.870748"
     d="m 547.16548,543.68029 c -4.97438,-1.76417 -9.93447,-6.26103 -12.98913,-11.77603 l -2.58452,-4.66617 0.23033,-23.46409 c 0.12672,-12.90524 0.60682,-24.86228 1.06699,-26.5712 1.27923,-4.75076 5.61322,-10.98598 9.68766,-13.93748 6.8368,-4.95256 9.29532,-5.25171 43.15946,-5.25171 h 30.75352 v -23.91269 -23.9127 l -51.15645,-0.25057 -51.15647,-0.25057 -4.94725,-2.42947 c -5.37321,-2.63864 -9.18156,-6.43147 -12.22961,-12.17977 -2.77972,-5.24227 -2.77972,-16.04267 0,-21.28492 3.04805,-5.74831 6.8564,-9.54114 12.22961,-12.17979 l 4.94725,-2.42946 h 67.04762 67.04763 l 4.38869,2.31663 c 5.63889,2.97656 11.00273,8.81932 13.1083,14.27866 1.568,4.06555 1.65946,7.27792 1.65946,58.28907 0,51.12571 -0.0885,54.21578 -1.66959,58.3156 -2.19348,5.68761 -8.16332,11.9591 -13.81774,14.51592 -4.47229,2.02227 -5.0275,2.05678 -37.29447,2.31804 l -32.75458,0.26521 -0.42791,8.18075 c -0.51996,9.94058 -3.10213,16.00264 -9.04447,21.23329 -6.67381,5.87453 -16.78026,7.7888 -25.25433,4.78345 z"
     id="path7" />
  <path
     style="fill:#000000;stroke-width:0.870748"
     d="m 549.27082,630.12248 c -12.16375,-3.41877 -19.82526,-14.8439 -18.76998,-27.99044 0.8054,-10.03363 5.86736,-17.76303 14.35132,-21.91385 12.71583,-6.22127 28.37641,-0.21358 34.26838,13.14598 2.63559,5.97602 2.63159,15.77507 -0.009,21.91318 -4.88086,11.34584 -18.38636,18.06455 -29.84077,14.84513 z"
     id="path8" />
</svg>
