<?xml version="1.0" encoding="UTF-8" standalone="no"?>
<!-- Created with Inkscape (http://www.inkscape.org/) -->

<svg
   width="600"
   height="500"
   viewBox="0 0 158.75 132.29166"
   version="1.1"
   id="svg1"
   inkscape:version="1.3.1 (9b9bdc1480, 2023-11-25, custom)"
   sodipodi:docname="icon_broadcast_small.svg"
   xmlns:inkscape="http://www.inkscape.org/namespaces/inkscape"
   xmlns:sodipodi="http://sodipodi.sourceforge.net/DTD/sodipodi-0.dtd"
   xmlns="http://www.w3.org/2000/svg"
   xmlns:svg="http://www.w3.org/2000/svg">
  <sodipodi:namedview
     id="namedview1"
     pagecolor="#ffffff"
     bordercolor="#000000"
     borderopacity="0.25"
     inkscape:showpageshadow="2"
     inkscape:pageopacity="0.0"
     inkscape:pagecheckerboard="0"
     inkscape:deskcolor="#d1d1d1"
     inkscape:document-units="pt"
     inkscape:zoom="1.0476431"
     inkscape:cx="396.60453"
     inkscape:cy="408.53608"
     inkscape:window-width="2488"
     inkscape:window-height="1376"
     inkscape:window-x="1992"
     inkscape:window-y="27"
     inkscape:window-maximized="1"
     inkscape:current-layer="layer1" />
  <defs
     id="defs1" />
  <g
     inkscape:label="Layer 1"
     inkscape:groupmode="layer"
     id="layer1">
    <path
       d="M 12.925571,35.406379 H 46.308546 V 88.240364 H 12.925571 c -2.790527,0 -5.0436205,-2.25309 -5.0436205,-5.04362 V 40.449999 c 0,-2.790528 2.2737635,-5.04362 5.0436205,-5.04362 z"
       fill="#f4ce26"
       id="path1"
       style="stroke-width:0.206706" />
    <path
       d="M 51.352166,93.283984 H 12.925571 c -5.5603845,0 -10.0872405,-4.52686 -10.0872405,-10.08724 V 40.449999 c 0,-5.560385 4.526856,-10.08724 10.0872405,-10.08724 H 51.352166 Z M 12.925571,40.449999 V 83.196744 H 41.264927 V 40.449999 Z"
       fill="#333333"
       id="path2"
       style="stroke-width:0.206706" />
    <path
       d="M 118.11812,45.018195 H 103.9381 v 38.426599 h 14.18002 c 2.79053,0 5.04362,-2.2531 5.04362,-5.04362 V 50.061815 c 0,-2.790527 -2.25309,-5.04362 -5.04362,-5.04362 z"
       fill="#f4ce26"
       id="path3"
       style="stroke-width:0.206706" />
    <path
       d="M 118.11812,88.488414 H 98.894489 V 39.974575 h 19.223631 c 5.56038,0 10.08724,4.526856 10.08724,10.08724 v 28.339359 c 0,5.56038 -4.50619,10.08724 -10.08724,10.08724 z m -9.11572,-10.08724 h 9.13639 V 50.061815 h -9.13639 z m 33.38297,-18.97559 h 9.61182 c 2.64583,0 4.79557,2.14974 4.79557,4.79557 0,2.64584 -2.14974,4.79558 -4.79557,4.79558 h -9.61182 c -2.64583,0 -4.79557,-2.14974 -4.79557,-4.79558 0,-2.64583 2.14974,-4.79557 4.79557,-4.79557 z m 3.03857,24.65999 8.30958,4.79558 c 2.29443,1.32291 3.07991,4.25814 1.75699,6.55257 -1.32291,2.29443 -4.25813,3.07991 -6.55257,1.757 l -8.30957,-4.79558 c -2.29443,-1.32291 -3.07991,-4.25813 -1.757,-6.55257 1.32292,-2.29443 4.25814,-3.07991 6.55257,-1.757 z m -4.79557,-48.038407 8.30957,-4.795573 c 2.29444,-1.322917 5.22966,-0.537435 6.55257,1.756998 1.32292,2.294434 0.53744,5.229655 -1.75699,6.552572 l -8.30958,4.795573 c -2.29443,1.322917 -5.22965,0.537435 -6.55257,-1.756999 -1.32291,-2.294433 -0.53743,-5.229655 1.757,-6.552571 z"
       fill="#333333"
       id="path4"
       style="stroke-width:0.206706" />
    <path
       d="M 46.308546,34.827603 96.538039,8.1212216 c 2.4598,-1.302246 5.519041,-0.37207 6.821291,2.0877284 0.39274,0.72347 0.59945,1.550293 0.59945,2.377116 V 115.36015 c 0,2.79053 -2.2531,5.04362 -5.043621,5.04362 -0.90951,0 -1.81901,-0.24805 -2.6045,-0.72347 L 46.308546,89.666634 Z"
       fill="#ffffff"
       id="path5"
       style="stroke-width:0.206706" />
    <path
       d="m 98.915159,125.44739 c -1.81901,0 -3.61735,-0.49609 -5.18832,-1.42627 L 41.264927,92.539844 V 31.789029 L 94.160919,3.6563786 c 4.89893,-2.625163 11.038091,-0.744141 13.642581,4.175455 0.76481,1.467611 1.17822,3.1005864 1.17822,4.7335624 V 115.33948 c 0.0207,5.58106 -4.50618,10.10791 -10.066561,10.10791 z M 51.352166,86.814094 98.915159,115.36015 V 12.586066 L 51.352166,37.866177 Z"
       fill="#333333"
       id="path6"
       style="stroke-width:0.206706" />
    <path
       d="M 17.493768,90.638154 H 36.7174 v 28.587396 c 0,2.79053 -2.253092,5.04362 -5.043619,5.04362 h -9.136394 c -2.790527,0 -5.043619,-2.25309 -5.043619,-5.04362 z"
       fill="#ffffff"
       id="path7"
       style="stroke-width:0.206706" />
    <path
       d="m 31.673781,129.31279 h -9.136394 c -5.560384,0 -10.087239,-4.52686 -10.087239,-10.08724 V 85.594534 H 41.76102 v 33.631016 c 0,5.56038 -4.526855,10.08724 -10.087239,10.08724 z M 22.537387,95.681774 v 23.543776 h 9.136394 V 95.681774 Z"
       fill="#333333"
       id="path8"
       style="stroke-width:0.206706" />
    <path
       style="fill:#000000;fill-opacity:1;stroke-width:0.0899943"
       d="m 20.665125,129.09012 c -2.020678,-0.4015 -3.857182,-1.41171 -5.314352,-2.9233 -1.242101,-1.28848 -2.053144,-2.7085 -2.544215,-4.45455 l -0.252214,-0.89678 -0.02445,-13.79163 -0.02445,-13.791626 h -0.211258 c -0.427473,0 -1.817437,-0.28322 -2.4776845,-0.50486 -0.775225,-0.26023 -1.922103,-0.81991 -2.512461,-1.22609 -1.801494,-1.23946 -3.248194,-3.17233 -3.929364,-5.24985 -0.514933,-1.57051 -0.493681,-0.51895 -0.493681,-24.42722 0,-23.908271 -0.02125,-22.856711 0.493681,-24.427218 1.091299,-3.328382 3.745227,-5.789649 7.2570935,-6.73028 l 0.752628,-0.201588 16.333972,-0.04697 16.333971,-0.04697 25.377614,-13.498389 C 87.300769,7.3672886 95.049759,3.2900286 95.626339,3.0891436 c 2.85154,-0.993512 5.958391,-0.642941 8.575491,0.967642 0.92259,0.567769 2.27031,1.845708 2.88649,2.737058 0.60356,0.873072 1.19292,2.122643 1.50776,3.196777 l 0.24967,0.8517954 0.0463,14.579081 0.0462,14.579085 5.39966,0.0482 5.39966,0.0482 0.89783,0.244268 c 1.77166,0.482015 3.50783,1.523247 4.77193,2.861872 1.39413,1.476319 2.2746,3.254972 2.60538,5.263139 0.13298,0.807285 0.14466,2.373579 0.12077,16.192763 l -0.0264,15.29904 -0.24667,0.89994 c -0.33106,1.20787 -1.16628,2.86739 -1.91017,3.79538 -1.6442,2.05111 -4.04696,3.38884 -6.6626,3.70938 -0.49716,0.0609 -2.66,0.0993 -5.60054,0.0995 l -4.79058,2.1e-4 -0.0253,14.331586 -0.0252,14.3316 -0.24806,0.84533 c -1.02618,3.49714 -3.66297,6.12885 -7.09381,7.08016 -1.14147,0.31652 -3.164891,0.40172 -4.329001,0.18231 -0.90049,-0.16974 -1.9844,-0.51541 -2.63595,-0.84065 -0.24748,-0.12349 -12.03224,-7.1748 -26.188346,-15.66955 C 45.146969,94.799174 42.570382,93.275164 42.185,93.246564 l -0.42747,-0.0317 -0.0012,12.855366 c -8.27e-4,7.52778 -0.03763,13.28428 -0.08879,13.89031 -0.385052,4.56146 -3.569079,8.15785 -8.054275,9.09739 -0.747175,0.15651 -1.256351,0.1691 -6.569589,0.16239 -4.482637,-0.006 -5.896804,-0.0345 -6.378305,-0.13021 z M 31.67814,107.45134 V 95.662084 h -4.589713 -4.58971 v 11.789256 11.78925 h 4.58971 4.589713 z M 98.993899,63.933774 c 0,-28.290393 -0.0304,-51.421154 -0.0675,-51.401693 -0.0371,0.01945 -10.76902,5.720591 -23.84866,12.66918 l -23.78117,12.633801 0.02267,24.521732 0.02265,24.52172 23.71351,14.238566 c 13.04243,7.8312 23.76413,14.24198 23.826,14.24615 0.0899,0.006 0.11249,-10.33575 0.11249,-51.429456 z M 41.307533,61.824214 V 40.405565 H 27.088427 12.869326 v 21.418649 21.41865 h 14.219101 14.219106 z m 76.855157,2.42985 V 50.034958 h -4.58971 -4.58971 v 14.219106 14.2191 h 4.58971 4.58971 z"
       id="path9" />
    <path
       style="fill:#000000;fill-opacity:1;stroke-width:0.0899943"
       d="m 142.46116,44.895615 c -2.33195,-0.264956 -4.14778,-2.293638 -4.14851,-4.634818 -2e-4,-0.899453 0.12429,-1.426365 0.52959,-2.240083 0.58935,-1.183241 0.89461,-1.40532 5.87,-4.27036 2.44555,-1.408257 4.69103,-2.660001 4.98995,-2.781658 0.41006,-0.16689 0.76441,-0.23125 1.44343,-0.262169 0.7985,-0.03636 0.97934,-0.01426 1.6044,0.196038 0.89466,0.301005 1.52376,0.703963 2.08883,1.337952 0.82196,0.922224 1.20858,1.939034 1.21039,3.18338 0.002,1.502951 -0.75669,2.991119 -1.94714,3.818351 -0.47411,0.329446 -8.26419,4.827091 -8.9861,5.188169 -0.84352,0.421897 -1.70593,0.573013 -2.65484,0.465198 z"
       id="path10" />
    <path
       style="fill:#000000;fill-opacity:1;stroke-width:0.0899943"
       d="m 141.12066,68.792944 c -1.45796,-0.39687 -2.78919,-1.69689 -3.25887,-3.18248 -0.2563,-0.81065 -0.25539,-1.99498 0.002,-2.8098 0.48082,-1.52123 1.81431,-2.76913 3.40057,-3.18229 0.76287,-0.19871 11.07981,-0.19871 11.84268,0 2.33153,0.60728 3.92019,2.91413 3.58864,5.21094 -0.24636,1.70661 -1.42462,3.18458 -3.07538,3.85764 -0.49326,0.20112 -0.51491,0.20188 -6.25461,0.21999 -4.82601,0.0152 -5.83834,-0.003 -6.24519,-0.114 z"
       id="path11" />
    <path
       style="fill:#000000;fill-opacity:1;stroke-width:0.0899943"
       d="m 150.66393,97.733124 c -0.26492,-0.0406 -0.6699,-0.14349 -0.89994,-0.22873 -0.23004,-0.0852 -2.4399,-1.31421 -4.91079,-2.73104 -4.05968,-2.32785 -4.5548,-2.63675 -5.13884,-3.20601 -0.97072,-0.94617 -1.39636,-1.95399 -1.40225,-3.32023 -0.005,-1.26089 0.39172,-2.27 1.27113,-3.22972 0.62151,-0.67826 1.59308,-1.23189 2.48783,-1.41764 0.6946,-0.1442 1.84245,-0.0675 2.49219,0.16644 0.28996,0.10441 2.55248,1.35567 5.02782,2.78057 3.79239,2.18305 4.58745,2.6757 5.05245,3.1307 0.92647,0.90655 1.40759,2.04409 1.40571,3.32362 -0.002,1.3682 -0.41849,2.37288 -1.38695,3.34576 -0.35027,0.35187 -0.84107,0.74315 -1.09067,0.86951 -0.90474,0.45802 -2.00927,0.65432 -2.90769,0.51677 z"
       id="path12" />
  </g>
</svg>
